PathFileType	4	(X/Y/Z)	D:\TRACE\v60_Jaco2_6-2-23\JustBodyDRS_Motion3_10-v60.trc
DataRate	CameraRate	NumFrames	NumMarkers	Units	OrigDataRate	OrigDataStartFrame	OrigNumFrames
100.00	100.00	      35	9	mm	100.00	1	      7000
Frame#	Time	front left toe			Front right toe			aft left toe			aft right toe			Arm			FL body			FR body			AL Body			AR Body			
		X1	Y1	Z1	X2	Y2	Z2	X3	Y3	Z3	X4	Y4	Z4	X5	Y5	Z5	X6	Y6	Z6	X7	Y7	Z7	X8	Y8	Z8	X9	Y9	Z9	

1	0.000	-230.09517	82.41353	-313.46948	183.93793	89.92734	-356.06827	-158.62361	-24.28520	280.23926	238.98355	-23.21268	269.72754	9.24374	1273.21460	-247.00742	-114.62786	661.50012	-461.88123	42.85573	661.40759	-478.31430	-16.00081	494.19916	461.71555	134.55553	485.21213	444.96896	
2	0.010	-230.11769	82.44101	-313.46036	184.06290	89.94173	-355.96884	-158.59776	-24.26270	280.23029	238.91943	-23.15016	269.69876	9.44207	1273.12659	-246.92699	-114.60702	661.54547	-461.86407	42.85458	661.40063	-478.31604	-16.00404	494.26059	461.68097	134.57227	485.19070	444.97354	
3	0.020	-230.10745	82.43961	-313.47952	184.13844	89.95233	-355.94342	-158.64571	-24.23087	280.21722	238.99188	-23.15680	269.73593	9.26032	1273.19189	-247.03201	-114.60678	661.48444	-461.85635	44.09313	661.26019	-478.09293	-16.04794	494.25281	461.69553	134.59367	485.20316	444.97473	
4	0.030	-230.09247	82.42668	-313.47244	184.05270	89.97018	-356.00516	-158.65022	-24.23490	280.23404	238.97708	-23.21111	269.75455	9.47187	1273.11279	-246.93715	-114.62865	661.53851	-461.86499	44.05825	661.25311	-478.09552	-16.02592	494.23630	461.66364	134.58147	485.19769	444.96603	
5	0.040	-230.08641	82.40230	-313.43866	184.05861	89.98387	-355.97983	-158.64099	-24.25729	280.26340	238.91394	-23.28272	269.71960	9.23816	1273.18140	-247.06189	-114.61863	661.53760	-461.87854	44.04816	661.24841	-478.09650	-16.01486	494.21933	461.65897	134.54329	485.18124	444.95288	
6	0.050	-230.07936	82.39728	-313.42767	183.99854	89.95975	-356.01852	-158.63983	-24.29622	280.27396	238.90092	-23.27727	269.74060	9.18960	1273.16394	-247.06000	-114.62773	661.50934	-461.89627	42.84109	661.40613	-478.34756	-15.96934	494.17160	461.68011	134.58162	485.19543	444.95541	
7	0.060	-230.07899	82.40750	-313.46274	184.09763	89.95939	-355.93674	-158.58626	-24.29809	280.23306	238.96764	-23.26056	269.71725	9.21539	1273.16809	-247.05484	-114.64174	661.51526	-461.85330	42.84546	661.43140	-478.33026	-15.98076	494.19159	461.67813	134.59244	485.20023	444.96436	
8	0.070	-230.09464	82.39939	-313.46042	184.26282	90.00704	-355.87061	-159.31004	-23.65251	280.41187	238.96898	-23.19843	269.72757	9.21972	1273.19165	-247.01254	-114.62791	661.51978	-461.87189	42.88251	661.38141	-478.32928	-15.99601	494.20370	461.67426	134.53888	485.19116	444.95187	
9	0.080	-230.08798	82.41850	-313.46002	184.01880	89.94652	-356.04230	-158.57840	-24.31434	280.26160	238.94261	-23.25220	269.72348	9.24290	1273.18933	-247.05304	-114.64429	661.56854	-461.87387	42.86002	661.38232	-478.33356	-15.97398	494.23022	461.67984	134.54752	485.18625	444.96204	
10	0.090	-230.08542	82.40931	-313.45493	183.97571	89.87407	-355.99966	-159.26320	-23.71818	280.42392	238.89868	-23.27550	269.73822	9.16531	1273.22522	-247.04654	-114.63477	661.50378	-461.86984	42.89616	661.37708	-478.32095	-15.97249	494.17804	461.67804	134.57045	485.18463	444.96240	
11	0.100	-230.08867	82.41774	-313.46259	184.11743	89.90380	-355.95114	-158.62221	-24.32806	280.24124	238.94370	-23.25216	269.71902	9.22629	1273.17566	-247.07115	-114.63027	661.51849	-461.87704	42.83791	661.39020	-478.31592	-15.97262	494.21533	461.65402	134.56946	485.18344	444.96323	
12	0.110	-230.09628	82.40159	-313.43167	184.24164	90.01963	-355.87466	-158.63257	-24.25507	280.22891	238.96664	-23.21831	269.69785	9.23966	1273.18799	-247.03809	-114.63801	661.51483	-461.87888	42.89223	661.36053	-478.30692	-15.98303	494.20541	461.64520	134.57387	485.18088	444.94281	
13	0.120	-230.09583	82.41832	-313.46539	183.94954	89.88033	-356.01196	-159.27460	-23.66700	280.42551	238.92297	-23.17664	269.73596	9.47969	1273.11316	-246.95395	-114.62615	661.52771	-461.87515	42.81576	661.41327	-478.35077	-16.00532	494.22198	461.65695	134.57722	485.17230	444.94525	
14	0.130	-230.10854	82.42931	-313.47986	184.17393	89.91205	-355.93427	-158.62195	-24.24588	280.24591	239.00792	-23.20670	269.74426	9.24630	1273.20227	-247.07404	-114.65060	661.53522	-461.83954	42.85254	661.38855	-478.32715	-15.97284	494.21487	461.66104	134.54015	485.18201	444.96442	
15	0.140	-230.09305	82.42410	-313.47726	183.96356	89.85860	-355.98087	-158.60533	-24.26201	280.22366	238.97026	-23.20618	269.74802	9.20317	1273.18469	-247.07349	-114.62247	661.51898	-461.86328	44.18567	661.20441	-478.10025	-15.97576	494.22037	461.69208	134.55293	485.17584	444.95444	
16	0.150	-230.10211	82.40183	-313.45016	184.05722	89.93287	-356.01746	-159.27786	-23.71112	280.42496	238.94666	-23.19985	269.79327	9.21955	1273.20850	-247.04518	-114.62685	661.48175	-461.84769	44.08234	661.26263	-478.10147	-16.03530	494.20624	461.66470	134.56509	485.18127	444.96771	
17	0.160	-230.08902	82.40753	-313.46625	183.94508	89.91638	-356.01434	-158.61823	-24.28684	280.25226	238.88351	-23.27295	269.72989	9.40991	1273.11304	-246.96458	-114.61929	661.49695	-461.87894	42.80630	661.42737	-478.34290	-15.96692	494.20145	461.68454	134.55247	485.18250	444.94711	
18	0.170	-230.08414	82.43932	-313.46338	184.18750	89.98109	-355.87628	-158.64197	-24.27595	280.24536	238.92194	-23.25550	269.73035	9.25815	1273.19067	-247.04568	-114.62003	661.55170	-461.83609	42.91211	661.36072	-478.31113	-15.95506	494.17178	461.65402	134.60428	485.19913	444.94177	
19	0.180	-230.10855	82.43021	-313.45825	184.22800	89.94031	-355.85876	-158.63095	-24.26541	280.25241	238.91200	-23.20277	269.78229	9.19166	1273.19995	-247.04692	-114.63975	661.53741	-461.90048	44.08552	661.22321	-478.10773	-16.00397	494.23175	461.65332	134.54715	485.16937	444.93420	
20	0.190	-230.10555	82.44434	-313.47733	183.98021	89.88503	-356.02759	-158.64302	-24.27666	280.25259	238.95190	-23.23427	269.69614	9.21478	1273.20544	-247.09149	-114.61972	661.52887	-461.87946	44.20928	661.18842	-478.07397	-15.94553	494.18945	461.64651	134.55859	485.17996	444.95316	
21	0.200	-230.10295	82.41247	-313.47406	184.20355	89.91793	-355.88068	-158.81200	-24.35741	280.62207	238.87617	-23.27248	269.69534	9.27166	1273.17383	-247.05182	-114.61355	661.54382	-461.86661	44.08786	661.25629	-478.11044	-16.03994	494.22858	461.64313	134.50926	485.17480	444.92950	
22	0.210	-230.09294	82.41975	-313.44751	184.21555	89.92609	-355.90063	-158.59795	-24.29409	280.26260	238.88872	-23.20889	269.66891	9.21358	1273.18030	-247.07326	-114.61607	661.52606	-461.87787	42.85991	661.36560	-478.33521	-15.94949	494.19809	461.62991	134.59521	485.16849	444.92871	
23	0.220	-230.08180	82.40855	-313.47510	184.07675	89.88240	-355.93304	-158.64410	-24.25771	280.25104	238.95996	-23.23603	269.72568	9.24262	1273.21289	-247.03833	-114.64832	661.48651	-461.86795	42.81644	661.41632	-478.34341	-15.95643	494.19269	461.68839	134.59468	485.19183	444.94366	
24	0.230	-230.08397	82.40585	-313.44882	184.20712	89.94444	-355.86890	-159.24722	-23.73902	280.41275	238.97635	-23.17029	269.72998	9.22932	1273.19971	-247.05232	-114.63313	661.54004	-461.89343	42.87852	661.38837	-478.33121	-16.00529	494.19339	461.63840	134.55373	485.18222	444.94424	
25	0.240	-230.08948	82.42876	-313.46439	184.12114	89.93150	-355.96155	-158.61375	-24.28751	280.26245	238.91946	-23.22155	269.69250	9.22457	1273.21655	-247.06013	-114.62130	661.53406	-461.89490	42.81576	661.41449	-478.32382	-16.03262	494.24380	461.67657	134.56404	485.18063	444.94510	
26	0.250	-230.09665	82.43715	-313.46118	184.15781	89.95924	-355.92285	-158.68315	-24.24854	280.24564	238.93500	-23.29777	269.71234	9.47376	1273.10217	-246.95326	-114.62207	661.50800	-461.90543	44.04150	661.24652	-478.11932	-16.00657	494.20270	461.59692	134.55766	485.19049	444.96243	
27	0.260	-230.10666	82.42674	-313.46542	183.92587	89.86728	-356.01749	-159.27194	-23.69823	280.40884	238.92516	-23.20092	269.69357	9.26988	1273.15637	-247.09596	-114.64159	661.51721	-461.88498	42.82629	661.42273	-478.35507	-16.02215	494.20908	461.63184	134.56952	485.18649	444.94952	
28	0.270	-230.09628	82.40768	-313.45990	183.84747	89.90960	-356.09653	-158.63693	-24.26993	280.23676	238.95210	-23.25054	269.70239	9.18825	1273.20117	-247.07527	-114.66196	661.54346	-461.91257	44.06641	661.22498	-478.10617	-15.97151	494.20526	461.67081	134.56061	485.19684	444.94226	
29	0.280	-230.08540	82.39896	-313.46063	184.07014	89.97377	-355.98288	-159.24316	-23.72908	280.44070	238.93481	-23.25728	269.70731	9.23430	1273.21387	-247.07150	-114.65090	661.51849	-461.89795	44.09700	661.23279	-478.09091	-15.99162	494.18210	461.64435	134.57742	485.18509	444.94250	
30	0.290	-230.10034	82.41678	-313.45978	184.08105	89.90408	-356.00275	-159.29135	-23.71458	280.42471	238.94710	-23.20091	269.75601	9.22185	1273.20081	-247.06770	-114.64577	661.50848	-461.89655	44.20794	661.20355	-478.06378	-15.99146	494.20724	461.65558	134.56192	485.15829	444.91489	
31	0.300	-230.07860	82.41004	-313.47891	184.12199	89.92736	-355.93500	-158.63652	-24.28417	280.26678	238.95538	-23.27300	269.74307	9.21921	1273.18494	-247.07722	-114.63350	661.49945	-461.90341	44.17936	661.22211	-478.07495	-16.03832	494.21893	461.65994	134.55344	485.16348	444.93735	
32	0.310	-230.11075	82.43123	-313.43994	184.04428	89.95941	-355.99390	-158.63734	-24.26160	280.23581	238.91664	-23.22968	269.76886	9.23146	1273.20081	-247.04474	-114.63274	661.51971	-461.89716	42.84117	661.39191	-478.34341	-15.98982	494.22745	461.64511	134.57132	485.18231	444.93079	
33	0.320	-230.10924	82.43317	-313.46603	184.13800	90.00632	-355.90137	-158.65193	-24.20222	280.24353	238.95839	-23.21581	269.75568	9.26294	1273.18262	-247.04060	-114.63371	661.51410	-461.87115	44.11388	661.25836	-478.11670	-15.98376	494.21277	461.64203	134.56845	485.18350	444.93491	
34	0.330	-230.09219	82.44534	-313.46701	184.00438	89.96032	-356.00568	-158.68124	-24.21917	280.25018	238.98370	-23.19593	269.73010	9.26337	1273.15540	-247.05516	-114.61559	661.50879	-461.86789	44.15335	661.22314	-478.08810	-16.03573	494.27710	461.63297	134.53040	485.16727	444.93594	
35	0.340	-230.11227	82.41941	-313.46732	184.12076	90.01067	-355.93619	-159.23863	-23.72565	280.43762	238.95483	-23.17847	269.70340	9.24255	1273.20386	-247.07884	-114.64570	661.50256	-461.87476	44.08327	661.22351	-478.10077	-16.00107	494.24255	461.63824	134.55597	485.19821	444.95306	
